<svg xmlns="http://www.w3.org/2000/svg" xmlns:xlink="http://www.w3.org/1999/xlink" width="200" zoomAndPan="magnify" viewBox="0 0 150 149.999998" height="200" preserveAspectRatio="xMidYMid meet" version="1.0"><defs><g/></defs><rect x="-15" width="180" fill="#ffffff" y="-15" height="179.999997" fill-opacity="1"/><rect x="-15" width="180" fill="#ffffff" y="-15" height="179.999997" fill-opacity="1"/><rect x="-15" width="180" fill="#231f20" y="-15" height="179.999997" fill-opacity="1"/><g fill="#fbfaf9" fill-opacity="1"><g transform="translate(17.601174, 88.659063)"><g><path d="M 16.011719 -5.847656 C 16.011719 -2.699219 13.804688 -0.539062 10.027344 -0.539062 C 5.9375 -0.539062 3.238281 -3.058594 1.933594 -6.070312 L 1.125 -6.070312 L 1.484375 0 L 2.429688 0 C 2.652344 -0.71875 3.238281 -1.078125 3.867188 -1.078125 C 4.992188 -1.078125 6.835938 0.539062 10.253906 0.539062 C 14.929688 0.539062 19.15625 -2.472656 19.15625 -7.0625 C 19.15625 -12.503906 13.582031 -14.4375 9.757812 -16.234375 C 6.117188 -17.945312 4.046875 -19.699219 4.046875 -22.621094 C 4.046875 -25.589844 6.117188 -27.613281 9.398438 -27.613281 C 12.367188 -27.613281 14.570312 -26.039062 16.101562 -22.667969 L 17 -22.667969 L 16.730469 -28.289062 L 15.875 -28.289062 C 15.648438 -27.65625 15.335938 -27.65625 14.886719 -27.65625 C 13.851562 -27.65625 12.773438 -28.648438 9.667969 -28.648438 C 4.046875 -28.648438 1.304688 -25.453125 1.304688 -21.632812 C 1.304688 -17.3125 4.8125 -14.707031 9.175781 -12.773438 C 12.324219 -11.421875 16.011719 -9.894531 16.011719 -5.847656 Z M 16.011719 -5.847656 "/></g></g></g><g fill="#fbfaf9" fill-opacity="1"><g transform="translate(35.184989, 88.659063)"><g><path d="M 28.0625 -2.609375 L 28.0625 -25.410156 C 28.0625 -26.578125 28.917969 -26.984375 31.074219 -27.253906 L 31.074219 -27.929688 C 29.140625 -27.792969 26.847656 -27.792969 24.871094 -27.929688 L 16.640625 -5.261719 L 7.601562 -27.929688 C 5.261719 -27.792969 3.28125 -27.792969 0.988281 -27.929688 L 0.988281 -27.253906 C 3.28125 -26.984375 4.316406 -26.625 4.316406 -25.320312 L 4.316406 -2.609375 C 4.316406 -1.078125 3.507812 -0.988281 0.675781 -0.675781 L 0.675781 0 C 3.460938 -0.136719 6.339844 -0.136719 9.21875 0 L 9.21875 -0.675781 C 6.476562 -0.988281 5.53125 -1.078125 5.53125 -2.609375 L 5.53125 -24.511719 L 15.246094 0 L 15.785156 0 L 24.871094 -24.511719 L 24.871094 -2.609375 C 24.871094 -1.078125 24.015625 -0.945312 21.675781 -0.675781 L 21.675781 0 C 24.78125 -0.136719 28.152344 -0.136719 31.210938 0 L 31.210938 -0.675781 C 28.917969 -0.945312 28.0625 -1.078125 28.0625 -2.609375 Z M 28.0625 -2.609375 "/></g></g></g><path stroke-linecap="butt" transform="matrix(0.748911, 0, 0, 0.75, 67.798891, 61.298113)" fill="none" stroke-linejoin="miter" d="M 0.00252414 -0.00165043 L 86.132741 -0.00165043 " stroke="#fbfaf9" stroke-width="1" stroke-opacity="1" stroke-miterlimit="4"/><path stroke-linecap="butt" transform="matrix(0.751548, 0, 0, 0.75, 64.286517, 88.578849)" fill="none" stroke-linejoin="miter" d="M -0.00181126 -0.000965111 L 90.815894 -0.000965111 " stroke="#fbfaf9" stroke-width="1" stroke-opacity="1" stroke-miterlimit="4"/><g fill="#fbfaf9" fill-opacity="1"><g transform="translate(77.936027, 73.038829)"><g><path d="M 1.765625 0.03125 C 1.472656 0.03125 1.1875 -0.015625 0.90625 -0.109375 C 0.632812 -0.203125 0.421875 -0.328125 0.265625 -0.484375 L 0.4375 -0.8125 C 0.582031 -0.664062 0.773438 -0.546875 1.015625 -0.453125 C 1.265625 -0.367188 1.515625 -0.328125 1.765625 -0.328125 C 2.128906 -0.328125 2.398438 -0.390625 2.578125 -0.515625 C 2.765625 -0.648438 2.859375 -0.828125 2.859375 -1.046875 C 2.859375 -1.203125 2.804688 -1.328125 2.703125 -1.421875 C 2.609375 -1.523438 2.488281 -1.601562 2.34375 -1.65625 C 2.207031 -1.707031 2.007812 -1.765625 1.75 -1.828125 C 1.445312 -1.898438 1.203125 -1.972656 1.015625 -2.046875 C 0.835938 -2.117188 0.6875 -2.226562 0.5625 -2.375 C 0.4375 -2.519531 0.375 -2.71875 0.375 -2.96875 C 0.375 -3.164062 0.425781 -3.347656 0.53125 -3.515625 C 0.632812 -3.679688 0.796875 -3.816406 1.015625 -3.921875 C 1.242188 -4.023438 1.523438 -4.078125 1.859375 -4.078125 C 2.085938 -4.078125 2.3125 -4.039062 2.53125 -3.96875 C 2.75 -3.90625 2.941406 -3.820312 3.109375 -3.71875 L 2.96875 -3.375 C 2.789062 -3.488281 2.609375 -3.570312 2.421875 -3.625 C 2.234375 -3.675781 2.046875 -3.703125 1.859375 -3.703125 C 1.503906 -3.703125 1.238281 -3.632812 1.0625 -3.5 C 0.882812 -3.363281 0.796875 -3.1875 0.796875 -2.96875 C 0.796875 -2.8125 0.84375 -2.679688 0.9375 -2.578125 C 1.03125 -2.484375 1.148438 -2.410156 1.296875 -2.359375 C 1.453125 -2.304688 1.65625 -2.25 1.90625 -2.1875 C 2.195312 -2.113281 2.429688 -2.039062 2.609375 -1.96875 C 2.796875 -1.90625 2.953125 -1.800781 3.078125 -1.65625 C 3.210938 -1.507812 3.28125 -1.3125 3.28125 -1.0625 C 3.28125 -0.863281 3.222656 -0.679688 3.109375 -0.515625 C 3.003906 -0.347656 2.835938 -0.210938 2.609375 -0.109375 C 2.378906 -0.015625 2.097656 0.03125 1.765625 0.03125 Z M 1.765625 0.03125 "/></g></g></g><g fill="#fbfaf9" fill-opacity="1"><g transform="translate(84.654316, 73.038829)"><g><path d="M 4.03125 -4.03125 L 4.03125 0 L 3.609375 0 L 3.609375 -1.859375 L 1.078125 -1.859375 L 1.078125 0 L 0.65625 0 L 0.65625 -4.03125 L 1.078125 -4.03125 L 1.078125 -2.234375 L 3.609375 -2.234375 L 3.609375 -4.03125 Z M 4.03125 -4.03125 "/></g></g></g><g fill="#fbfaf9" fill-opacity="1"><g transform="translate(92.51421, 73.038829)"><g><path d="M 3.1875 -1.078125 L 0.9375 -1.078125 L 0.453125 0 L 0.015625 0 L 1.859375 -4.03125 L 2.28125 -4.03125 L 4.125 0 L 3.671875 0 Z M 3.03125 -1.421875 L 2.0625 -3.59375 L 1.09375 -1.421875 Z M 3.03125 -1.421875 "/></g></g></g><g fill="#fbfaf9" fill-opacity="1"><g transform="translate(99.820597, 73.038829)"><g><path d="M 4.03125 -4.03125 L 4.03125 0 L 3.671875 0 L 1.078125 -3.28125 L 1.078125 0 L 0.65625 0 L 0.65625 -4.03125 L 1.015625 -4.03125 L 3.609375 -0.765625 L 3.609375 -4.03125 Z M 4.03125 -4.03125 "/></g></g></g><g fill="#fbfaf9" fill-opacity="1"><g transform="translate(107.680492, 73.038829)"><g><path d="M 0.65625 -4.03125 L 1.078125 -4.03125 L 1.078125 0 L 0.65625 0 Z M 0.65625 -4.03125 "/></g></g></g><g fill="#fbfaf9" fill-opacity="1"><g transform="translate(112.594118, 73.038829)"><g><path d="M 2.40625 0.03125 C 2.007812 0.03125 1.648438 -0.0546875 1.328125 -0.234375 C 1.003906 -0.410156 0.75 -0.65625 0.5625 -0.96875 C 0.382812 -1.28125 0.296875 -1.628906 0.296875 -2.015625 C 0.296875 -2.398438 0.382812 -2.75 0.5625 -3.0625 C 0.75 -3.382812 1.003906 -3.632812 1.328125 -3.8125 C 1.648438 -3.988281 2.015625 -4.078125 2.421875 -4.078125 C 2.710938 -4.078125 2.984375 -4.023438 3.234375 -3.921875 C 3.492188 -3.816406 3.710938 -3.671875 3.890625 -3.484375 L 3.625 -3.21875 C 3.300781 -3.53125 2.898438 -3.6875 2.421875 -3.6875 C 2.109375 -3.6875 1.820312 -3.613281 1.5625 -3.46875 C 1.300781 -3.320312 1.09375 -3.117188 0.9375 -2.859375 C 0.789062 -2.609375 0.71875 -2.328125 0.71875 -2.015625 C 0.71875 -1.703125 0.789062 -1.414062 0.9375 -1.15625 C 1.09375 -0.90625 1.300781 -0.707031 1.5625 -0.5625 C 1.820312 -0.414062 2.109375 -0.34375 2.421875 -0.34375 C 2.910156 -0.34375 3.3125 -0.503906 3.625 -0.828125 L 3.890625 -0.5625 C 3.710938 -0.363281 3.492188 -0.210938 3.234375 -0.109375 C 2.984375 -0.015625 2.707031 0.03125 2.40625 0.03125 Z M 2.40625 0.03125 "/></g></g></g><g fill="#fbfaf9" fill-opacity="1"><g transform="translate(119.912039, 73.038829)"><g><path d="M 3.515625 -0.375 L 3.515625 0 L 0.65625 0 L 0.65625 -4.03125 L 3.421875 -4.03125 L 3.421875 -3.671875 L 1.078125 -3.671875 L 1.078125 -2.234375 L 3.171875 -2.234375 L 3.171875 -1.875 L 1.078125 -1.875 L 1.078125 -0.375 Z M 3.515625 -0.375 "/></g></g></g><g fill="#fbfaf9" fill-opacity="1"><g transform="translate(77.936027, 81.471338)"><g><path d="M 4.84375 -4.03125 L 4.84375 0 L 4.4375 0 L 4.4375 -3.234375 L 2.859375 -0.515625 L 2.65625 -0.515625 L 1.0625 -3.21875 L 1.0625 0 L 0.65625 0 L 0.65625 -4.03125 L 1.015625 -4.03125 L 2.765625 -1.046875 L 4.5 -4.03125 Z M 4.84375 -4.03125 "/></g></g></g><g fill="#fbfaf9" fill-opacity="1"><g transform="translate(86.614653, 81.471338)"><g><path d="M 3.1875 -1.078125 L 0.9375 -1.078125 L 0.453125 0 L 0.015625 0 L 1.859375 -4.03125 L 2.28125 -4.03125 L 4.125 0 L 3.671875 0 Z M 3.03125 -1.421875 L 2.0625 -3.59375 L 1.09375 -1.421875 Z M 3.03125 -1.421875 "/></g></g></g></svg>